<svg xmlns="http://www.w3.org/2000/svg" version="1.1" xmlns:xlink="http://www.w3.org/1999/xlink" xmlns:svgjs="http://svgjs.com/svgjs" width="1920" height="1080" preserveAspectRatio="none" viewBox="0 0 1920 1080"><g mask="url(&quot;#SvgjsMask1084&quot;)" fill="none"><rect width="1920" height="1080" x="0" y="0" fill="url(#SvgjsLinearGradient1085)"></rect><path d="M83.92 270C73.05 132.88 -41.71 69.63 6.28 0C51.33 -65.37 138.14 0 270 0C393.26 0 401.18 -14.88 516.52 0C536.18 2.54 527.89 34.84 540 34.84C552.48 34.84 545.38 2.62 565.71 0C680.38 -14.8 687.86 0 810 0C945 0 945 0 1080 0C1195.99 0 1200.93 -13.38 1311.97 0C1335.93 2.89 1330.12 32.53 1350 32.53C1372.82 32.53 1369.67 3.34 1397.37 0C1504.67 -12.93 1508.68 0 1620 0C1752.19 0 1753.03 -2.31 1884.38 0C1888.03 0.06 1887.06 4.74 1890 4.74C1893.42 4.74 1892.86 0.07 1897.11 0C2027.86 -2.3 2095.15 -66.6 2160 0C2226.6 68.4 2160 135 2160 270C2160 405 2160 405 2160 540C2160 675 2160 675 2160 810C2160 945 2227.5 1012.5 2160 1080C2092.5 1147.5 2025 1080 1890 1080C1755 1080 1755 1080 1620 1080C1485 1080 1485 1080 1350 1080C1215 1080 1215 1080 1080 1080C945 1080 945 1080 810 1080C692.53 1080 619.64 1142.41 575.06 1080C523.21 1007.41 630.65 923.95 617.14 810C613.12 776.09 573.64 784.29 540 784.29C527.77 784.29 527.21 795.45 525.41 810C508.96 943.31 572.09 1007.5 503.51 1080C444.39 1142.5 386.75 1080 270 1080C135 1080 67.5 1147.5 0 1080C-67.5 1012.5 0 945 0 810C0 683.44 -20.37 668.91 0 556.88C4.18 533.91 42.37 562.97 49.09 540C84.33 419.53 94.45 402.88 83.92 270" stroke="rgba(51, 121, 194, 0.58)" stroke-width="2"></path><path d="M1080 208.48C968.15 208.48 837 238.67 837 270C837 301.41 968.7 333.95 1080 333.95C1116.91 333.95 1133.41 301.72 1133.41 270C1133.41 238.98 1116.35 208.48 1080 208.48" stroke="rgba(51, 121, 194, 0.58)" stroke-width="2"></path><path d="M810 294.55C755.49 294.55 671.54 419.23 671.54 540C671.54 649.95 754.88 756 810 756C858.73 756 879.23 648.61 879.23 540C879.23 417.89 859.33 294.55 810 294.55" stroke="rgba(51, 121, 194, 0.58)" stroke-width="2"></path><path d="M1350 778.44C1320.2 784.24 1297.17 793.74 1297.17 810C1297.17 826.63 1319.63 838.18 1350 844.23C1481.05 870.33 1491.44 886.24 1620 874.29C1675.53 869.13 1718.18 841.88 1718.18 810C1718.18 778.34 1675.25 751.95 1620 747.21C1491.16 736.17 1481.62 752.84 1350 778.44" stroke="rgba(51, 121, 194, 0.58)" stroke-width="2"></path><path d="M175.14 270C146.47 140.36 129.26 96.78 163.26 0C176.69 -38.22 216.63 0 270 0C319.89 0 336.47 -31.16 369.78 0C471.47 95.13 452.1 128.85 540 252.58C548.01 263.85 561.6 258.05 561.6 270C561.6 300.51 567.38 317.53 540 337.5C421.58 423.89 373.67 501.91 270 482.73C191.24 468.16 199.84 381.73 175.14 270" stroke="rgba(51, 121, 194, 0.58)" stroke-width="2"></path><path d="M810 97.5C753.19 77.73 726.43 29.53 726.43 0C726.43 -19.22 768.21 0 810 0C945 0 945 0 1080 0C1148.45 0 1157.68 -24.98 1216.9 0C1292.68 31.95 1280.43 113.86 1350 113.86C1429.88 113.86 1426.87 37.5 1515.79 0C1561.87 -19.43 1567.89 0 1620 0C1681.88 0 1690.71 -24.2 1743.75 0C1825.71 37.38 1813.43 123.16 1890 123.16C1978.92 123.16 1977.2 44.49 2074.74 0C2112.2 -17.09 2149.77 -32.4 2160 0C2192.4 102.6 2160 135 2160 270C2160 405 2160 405 2160 540C2160 624.38 2188.85 708.75 2160 708.75C2123.52 708.75 2105.1 613.13 2029.35 540C1970.1 482.8 1952.77 448.09 1890 448.09C1845.2 448.09 1859.88 502.68 1814.21 540C1724.88 612.99 1727.32 633.86 1620 668.72C1495.22 709.25 1476.36 652.76 1350 690.78C1241.57 723.4 1150.43 748.57 1150.43 810C1150.43 872.83 1240.15 905.46 1350 939.3C1474.93 977.78 1495.81 987.35 1620 954.64C1741.26 922.7 1746.83 896.58 1840.91 810C1881.83 772.34 1852.25 706.15 1890 706.15C1947.85 706.15 2014.55 737.05 2032.11 810C2059.55 923.97 2033.53 978.29 1980 1080C1962.48 1113.29 1935 1080 1890 1080C1755 1080 1755 1080 1620 1080C1485 1080 1485 1080 1350 1080C1215 1080 1215 1080 1080 1080C945 1080 945 1080 810 1080C736.37 1080 662.73 1115.25 662.73 1080C662.73 1023.8 722.64 971.74 810 897.1C880.65 836.74 946.61 883.68 978.75 810C1024.5 705.13 934.24 660.59 965.77 540C984.86 466.97 1025.44 483.68 1080 422.76C1146.34 348.68 1207.58 345.77 1207.58 270C1207.58 195.91 1163.05 159.07 1080 123.04C964.26 72.82 929.98 139.25 810 97.5" stroke="rgba(51, 121, 194, 0.58)" stroke-width="2"></path><path d="M0 662.34C87.3 610.99 165.87 606.35 270 651.18C337.35 680.18 315.55 727.37 342.97 810C386.7 941.78 436.45 990.62 412.3 1080C399.97 1125.62 341.15 1080 270 1080C144.64 1080 140.4 1089.56 19.29 1080C5.4 1078.9 1 1072.67 0 1058.68C-8.65 937.67 0 934.34 0 810C0 736.17 -47.7 690.4 0 662.34" stroke="rgba(51, 121, 194, 0.58)" stroke-width="2"></path><path d="M266.35 270C266.35 255.27 266.38 240 270 240C273.83 240 281.25 256.69 281.25 270C281.25 275.78 274.53 278.18 270 278.18C267.08 278.18 266.35 274.36 266.35 270" stroke="rgba(51, 121, 194, 0.58)" stroke-width="2"></path><path d="M1080 37.59C1019.72 37.59 950.87 9.59 950.87 0C950.87 -9.21 1015.43 0 1080 0C1100.91 0 1121.83 -8.02 1121.83 0C1121.83 10.78 1105.2 37.59 1080 37.59" stroke="rgba(51, 121, 194, 0.58)" stroke-width="2"></path><path d="M1281.76 270C1314.62 231.49 1309.74 195.18 1350 195.18C1411.36 195.18 1427.61 220.26 1485 270C1562.61 337.28 1555.85 347.06 1620 429.23C1661.24 482.06 1695.79 492.01 1695.79 540C1695.79 572.51 1663.52 582.29 1620 590.23C1490.62 613.85 1484.35 590.03 1350 603.12C1214.35 616.34 1187.06 665.56 1080 642.86C1038.21 634 1052.31 587.83 1052.31 540C1052.31 522.19 1067.16 526.69 1080 511.58C1181.88 391.69 1179.62 389.69 1281.76 270" stroke="rgba(51, 121, 194, 0.58)" stroke-width="2"></path><path d="M1834.14 270C1834.14 254.64 1859.94 241.58 1890 241.58C1968.87 241.58 2052 254.33 2052 270C2052 285.78 1968.01 304.47 1890 304.47C1859.08 304.47 1834.14 286.09 1834.14 270" stroke="rgba(51, 121, 194, 0.58)" stroke-width="2"></path><path d="M0 767.81C39.59 767.81 108 783.23 108 810C108 839.85 34.85 881.05 0 881.05C-19.15 881.05 0 845.53 0 810C0 788.9 -14.41 767.81 0 767.81" stroke="rgba(51, 121, 194, 0.58)" stroke-width="2"></path><path d="M180 1080C180 1038.44 232.55 949.66 270 949.66C303.09 949.66 321.08 1032.25 321.08 1080C321.08 1097.42 295.54 1080 270 1080C225 1080 180 1103.61 180 1080" stroke="rgba(51, 121, 194, 0.58)" stroke-width="2"></path><path d="M750.39 1080C750.39 1057.25 771.09 1005.97 810 1005.97C885.9 1005.97 980 1060.69 980 1080C980 1097.7 895 1080 810 1080C780.19 1080 750.39 1094.27 750.39 1080" stroke="rgba(51, 121, 194, 0.58)" stroke-width="2"></path><path d="M1202.73 1080C1202.73 1068.33 1274.17 1042.55 1350 1034.37C1482.8 1020.05 1488.25 1018.97 1620 1035C1675.75 1041.78 1725 1068.28 1725 1080C1725 1090.78 1672.5 1080 1620 1080C1485 1080 1485 1080 1350 1080C1276.36 1080 1202.73 1091.15 1202.73 1080" stroke="rgba(51, 121, 194, 0.58)" stroke-width="2"></path></g><defs><mask id="SvgjsMask1084"><rect width="1920" height="1080" fill="#ffffff"></rect></mask><linearGradient x1="10.94%" y1="-19.44%" x2="89.06%" y2="119.44%" gradientUnits="userSpaceOnUse" id="SvgjsLinearGradient1085"><stop stop-color="#0e2a47" offset="0"></stop><stop stop-color="#00459e" offset="1"></stop></linearGradient></defs></svg>